<?xml version="1.0" encoding="UTF-8" standalone="no"?>
<!DOCTYPE svg PUBLIC "-//W3C//DTD SVG 1.1//EN"
 "http://www.w3.org/Graphics/SVG/1.1/DTD/svg11.dtd">
<!-- Generated by graphviz version 2.47.0 (20210316.0004)
 -->
<!-- Title: dependencies Pages: 1 -->
<svg width="936pt" height="284pt"
 viewBox="0.00 0.00 936.00 284.00" xmlns="http://www.w3.org/2000/svg" xmlns:xlink="http://www.w3.org/1999/xlink">
<g id="graph0" class="graph" transform="scale(1 1) rotate(0) translate(4 280)">
<title>dependencies</title>
<polygon fill="white" stroke="transparent" points="-4,4 -4,-280 932,-280 932,4 -4,4"/>
<text text-anchor="start" x="443.01" y="-42.4" font-family="Times-12" font-weight="bold" font-size="14.00">Legend</text>
<polygon fill="#ffffb3" stroke="transparent" points="230,-10 230,-30 250,-30 250,-10 230,-10"/>
<text text-anchor="start" x="253.63" y="-15.4" font-family="Times-12" font-size="14.00"> &#160;Declarations</text>
<polygon fill="#8dd3c7" stroke="transparent" points="343,-10 343,-30 363,-30 363,-10 343,-10"/>
<text text-anchor="start" x="366.73" y="-15.4" font-family="Times-12" font-size="14.00"> &#160;Module</text>
<polygon fill="#80b1d3" stroke="transparent" points="429,-10 429,-30 449,-30 449,-10 429,-10"/>
<text text-anchor="start" x="452.78" y="-15.4" font-family="Times-12" font-size="14.00"> &#160;Bootstrap</text>
<polygon fill="#fdb462" stroke="transparent" points="526,-10 526,-30 546,-30 546,-10 526,-10"/>
<text text-anchor="start" x="549.67" y="-15.4" font-family="Times-12" font-size="14.00"> &#160;Providers</text>
<polygon fill="#fb8072" stroke="transparent" points="622,-10 622,-30 642,-30 642,-10 622,-10"/>
<text text-anchor="start" x="645.73" y="-15.4" font-family="Times-12" font-size="14.00"> &#160;Exports</text>
<g id="clust1" class="cluster">
<title>cluster_SharedModule</title>
<polygon fill="none" stroke="black" stroke-dasharray="1,5" points="8,-70 8,-268 920,-268 920,-70 8,-70"/>
</g>
<g id="clust10" class="cluster">
<title>cluster_SharedModule_exports</title>
<polygon fill="none" stroke="black" points="16,-208 16,-260 912,-260 912,-208 16,-208"/>
</g>
<g id="clust2" class="cluster">
<title>cluster_SharedModule_declarations</title>
<polygon fill="none" stroke="black" points="28,-78 28,-130 904,-130 904,-78 28,-78"/>
</g>
<!-- CollapsePanelComponent -->
<g id="node1" class="node">
<title>CollapsePanelComponent</title>
<polygon fill="#ffffb3" stroke="black" points="895.93,-122 734.07,-122 734.07,-86 895.93,-86 895.93,-122"/>
<text text-anchor="middle" x="815" y="-99.8" font-family="Times,serif" font-size="14.00">CollapsePanelComponent</text>
</g>
<!-- SharedModule -->
<g id="node7" class="node">
<title>SharedModule</title>
<polygon fill="#8dd3c7" stroke="black" points="399.42,-187 396.42,-191 375.42,-191 372.42,-187 300.58,-187 300.58,-151 399.42,-151 399.42,-187"/>
<text text-anchor="middle" x="350" y="-164.8" font-family="Times,serif" font-size="14.00">SharedModule</text>
</g>
<!-- CollapsePanelComponent&#45;&gt;SharedModule -->
<g id="edge1" class="edge">
<title>CollapsePanelComponent&#45;&gt;SharedModule</title>
<path fill="none" stroke="black" d="M843.65,-122.22C843.65,-140.83 843.65,-167 843.65,-167 843.65,-167 409.59,-167 409.59,-167"/>
<polygon fill="black" stroke="black" points="409.59,-163.5 399.59,-167 409.59,-170.5 409.59,-163.5"/>
</g>
<!-- EnumToArrayPipe -->
<g id="node2" class="node">
<title>EnumToArrayPipe</title>
<polygon fill="#ffffb3" stroke="black" points="716.03,-122 593.97,-122 593.97,-86 716.03,-86 716.03,-122"/>
<text text-anchor="middle" x="655" y="-99.8" font-family="Times,serif" font-size="14.00">EnumToArrayPipe</text>
</g>
<!-- EnumToArrayPipe&#45;&gt;SharedModule -->
<g id="edge2" class="edge">
<title>EnumToArrayPipe&#45;&gt;SharedModule</title>
<path fill="none" stroke="black" d="M676.17,-122.03C676.17,-139.06 676.17,-162 676.17,-162 676.17,-162 409.54,-162 409.54,-162"/>
<polygon fill="black" stroke="black" points="409.54,-158.5 399.54,-162 409.54,-165.5 409.54,-158.5"/>
</g>
<!-- FormErrorComponent -->
<g id="node3" class="node">
<title>FormErrorComponent</title>
<polygon fill="#ffffb3" stroke="black" points="575.7,-122 434.3,-122 434.3,-86 575.7,-86 575.7,-122"/>
<text text-anchor="middle" x="505" y="-99.8" font-family="Times,serif" font-size="14.00">FormErrorComponent</text>
</g>
<!-- FormErrorComponent&#45;&gt;SharedModule -->
<g id="edge3" class="edge">
<title>FormErrorComponent&#45;&gt;SharedModule</title>
<path fill="none" stroke="black" d="M528.53,-122.24C528.53,-137.57 528.53,-157 528.53,-157 528.53,-157 409.26,-157 409.26,-157"/>
<polygon fill="black" stroke="black" points="409.26,-153.5 399.26,-157 409.26,-160.5 409.26,-153.5"/>
</g>
<!-- InProgressComponent -->
<g id="node4" class="node">
<title>InProgressComponent</title>
<polygon fill="#ffffb3" stroke="black" points="416.7,-122 275.3,-122 275.3,-86 416.7,-86 416.7,-122"/>
<text text-anchor="middle" x="346" y="-99.8" font-family="Times,serif" font-size="14.00">InProgressComponent</text>
</g>
<!-- InProgressComponent&#45;&gt;SharedModule -->
<g id="edge4" class="edge">
<title>InProgressComponent&#45;&gt;SharedModule</title>
<path fill="none" stroke="black" d="M350,-122.11C350,-122.11 350,-140.99 350,-140.99"/>
<polygon fill="black" stroke="black" points="346.5,-140.99 350,-150.99 353.5,-140.99 346.5,-140.99"/>
</g>
<!-- LoaderComponent -->
<g id="node5" class="node">
<title>LoaderComponent</title>
<polygon fill="#ffffb3" stroke="black" points="257.47,-122 136.53,-122 136.53,-86 257.47,-86 257.47,-122"/>
<text text-anchor="middle" x="197" y="-99.8" font-family="Times,serif" font-size="14.00">LoaderComponent</text>
</g>
<!-- LoaderComponent&#45;&gt;SharedModule -->
<g id="edge5" class="edge">
<title>LoaderComponent&#45;&gt;SharedModule</title>
<path fill="none" stroke="black" d="M213.66,-122.01C213.66,-138.05 213.66,-159 213.66,-159 213.66,-159 290.78,-159 290.78,-159"/>
<polygon fill="black" stroke="black" points="290.78,-162.5 300.78,-159 290.78,-155.5 290.78,-162.5"/>
</g>
<!-- ToDatePipe -->
<g id="node6" class="node">
<title>ToDatePipe</title>
<polygon fill="#ffffb3" stroke="black" points="118.37,-122 35.63,-122 35.63,-86 118.37,-86 118.37,-122"/>
<text text-anchor="middle" x="77" y="-99.8" font-family="Times,serif" font-size="14.00">ToDatePipe</text>
</g>
<!-- ToDatePipe&#45;&gt;SharedModule -->
<g id="edge6" class="edge">
<title>ToDatePipe&#45;&gt;SharedModule</title>
<path fill="none" stroke="black" d="M114.31,-122.27C114.31,-140.56 114.31,-166 114.31,-166 114.31,-166 290.59,-166 290.59,-166"/>
<polygon fill="black" stroke="black" points="290.59,-169.5 300.59,-166 290.59,-162.5 290.59,-169.5"/>
</g>
<!-- CollapsePanelComponent  -->
<g id="node8" class="node">
<title>CollapsePanelComponent </title>
<polygon fill="#fb8072" stroke="black" points="904.43,-252 739.57,-252 739.57,-216 904.43,-216 904.43,-252"/>
<text text-anchor="middle" x="822" y="-229.8" font-family="Times,serif" font-size="14.00">CollapsePanelComponent </text>
</g>
<!-- SharedModule&#45;&gt;CollapsePanelComponent  -->
<g id="edge7" class="edge">
<title>SharedModule&#45;&gt;CollapsePanelComponent </title>
<path fill="none" stroke="black" stroke-dasharray="5,2" d="M399.37,-172C514.6,-172 791.6,-172 791.6,-172 791.6,-172 791.6,-205.73 791.6,-205.73"/>
<polygon fill="black" stroke="black" points="788.1,-205.73 791.6,-215.73 795.1,-205.73 788.1,-205.73"/>
</g>
<!-- EnumToArrayPipe  -->
<g id="node9" class="node">
<title>EnumToArrayPipe </title>
<polygon fill="#fb8072" stroke="black" points="722.03,-252 595.97,-252 595.97,-216 722.03,-216 722.03,-252"/>
<text text-anchor="middle" x="659" y="-229.8" font-family="Times,serif" font-size="14.00">EnumToArrayPipe </text>
</g>
<!-- SharedModule&#45;&gt;EnumToArrayPipe  -->
<g id="edge8" class="edge">
<title>SharedModule&#45;&gt;EnumToArrayPipe </title>
<path fill="none" stroke="black" stroke-dasharray="5,2" d="M399.5,-177C481.38,-177 636.08,-177 636.08,-177 636.08,-177 636.08,-205.96 636.08,-205.96"/>
<polygon fill="black" stroke="black" points="632.58,-205.96 636.08,-215.96 639.58,-205.96 632.58,-205.96"/>
</g>
<!-- FormErrorComponent  -->
<g id="node10" class="node">
<title>FormErrorComponent </title>
<polygon fill="#fb8072" stroke="black" points="578.2,-252 433.8,-252 433.8,-216 578.2,-216 578.2,-252"/>
<text text-anchor="middle" x="506" y="-229.8" font-family="Times,serif" font-size="14.00">FormErrorComponent </text>
</g>
<!-- SharedModule&#45;&gt;FormErrorComponent  -->
<g id="edge9" class="edge">
<title>SharedModule&#45;&gt;FormErrorComponent </title>
<path fill="none" stroke="black" stroke-dasharray="5,2" d="M399.33,-182C436.63,-182 481.47,-182 481.47,-182 481.47,-182 481.47,-205.81 481.47,-205.81"/>
<polygon fill="black" stroke="black" points="477.97,-205.81 481.47,-215.81 484.97,-205.81 477.97,-205.81"/>
</g>
<!-- InProgressComponent  -->
<g id="node11" class="node">
<title>InProgressComponent </title>
<polygon fill="#fb8072" stroke="black" points="415.2,-252 270.8,-252 270.8,-216 415.2,-216 415.2,-252"/>
<text text-anchor="middle" x="343" y="-229.8" font-family="Times,serif" font-size="14.00">InProgressComponent </text>
</g>
<!-- SharedModule&#45;&gt;InProgressComponent  -->
<g id="edge10" class="edge">
<title>SharedModule&#45;&gt;InProgressComponent </title>
<path fill="none" stroke="black" stroke-dasharray="5,2" d="M350,-187.11C350,-187.11 350,-205.99 350,-205.99"/>
<polygon fill="black" stroke="black" points="346.5,-205.99 350,-215.99 353.5,-205.99 346.5,-205.99"/>
</g>
<!-- LoaderComponent  -->
<g id="node12" class="node">
<title>LoaderComponent </title>
<polygon fill="#fb8072" stroke="black" points="252.48,-252 127.52,-252 127.52,-216 252.48,-216 252.48,-252"/>
<text text-anchor="middle" x="190" y="-229.8" font-family="Times,serif" font-size="14.00">LoaderComponent </text>
</g>
<!-- SharedModule&#45;&gt;LoaderComponent  -->
<g id="edge11" class="edge">
<title>SharedModule&#45;&gt;LoaderComponent </title>
<path fill="none" stroke="black" stroke-dasharray="5,2" d="M300.34,-180C248.63,-180 175.09,-180 175.09,-180 175.09,-180 175.09,-205.72 175.09,-205.72"/>
<polygon fill="black" stroke="black" points="171.59,-205.72 175.09,-215.72 178.59,-205.72 171.59,-205.72"/>
</g>
<!-- ToDatePipe  -->
<g id="node13" class="node">
<title>ToDatePipe </title>
<polygon fill="#fb8072" stroke="black" points="110.37,-252 23.63,-252 23.63,-216 110.37,-216 110.37,-252"/>
<text text-anchor="middle" x="67" y="-229.8" font-family="Times,serif" font-size="14.00">ToDatePipe </text>
</g>
<!-- SharedModule&#45;&gt;ToDatePipe  -->
<g id="edge12" class="edge">
<title>SharedModule&#45;&gt;ToDatePipe </title>
<path fill="none" stroke="black" stroke-dasharray="5,2" d="M300.77,-173C221.14,-173 72.88,-173 72.88,-173 72.88,-173 72.88,-205.7 72.88,-205.7"/>
<polygon fill="black" stroke="black" points="69.38,-205.7 72.88,-215.7 76.38,-205.7 69.38,-205.7"/>
</g>
</g>
</svg>
