<?xml version="1.0" encoding="UTF-8" standalone="no"?>
<!DOCTYPE svg PUBLIC "-//W3C//DTD SVG 1.1//EN"
 "http://www.w3.org/Graphics/SVG/1.1/DTD/svg11.dtd">
<!-- Generated by graphviz version 2.47.0 (20210316.0004)
 -->
<!-- Title: dependencies Pages: 1 -->
<svg width="1321pt" height="211pt"
 viewBox="0.00 0.00 1321.00 211.00" xmlns="http://www.w3.org/2000/svg" xmlns:xlink="http://www.w3.org/1999/xlink">
<g id="graph0" class="graph" transform="scale(1 1) rotate(0) translate(4 207)">
<title>dependencies</title>
<polygon fill="white" stroke="transparent" points="-4,4 -4,-207 1317,-207 1317,4 -4,4"/>
<text text-anchor="start" x="635.51" y="-42.4" font-family="Times-12" font-weight="bold" font-size="14.00">Legend</text>
<polygon fill="#ffffb3" stroke="transparent" points="422.5,-10 422.5,-30 442.5,-30 442.5,-10 422.5,-10"/>
<text text-anchor="start" x="446.13" y="-15.4" font-family="Times-12" font-size="14.00"> &#160;Declarations</text>
<polygon fill="#8dd3c7" stroke="transparent" points="535.5,-10 535.5,-30 555.5,-30 555.5,-10 535.5,-10"/>
<text text-anchor="start" x="559.23" y="-15.4" font-family="Times-12" font-size="14.00"> &#160;Module</text>
<polygon fill="#80b1d3" stroke="transparent" points="621.5,-10 621.5,-30 641.5,-30 641.5,-10 621.5,-10"/>
<text text-anchor="start" x="645.28" y="-15.4" font-family="Times-12" font-size="14.00"> &#160;Bootstrap</text>
<polygon fill="#fdb462" stroke="transparent" points="718.5,-10 718.5,-30 738.5,-30 738.5,-10 718.5,-10"/>
<text text-anchor="start" x="742.17" y="-15.4" font-family="Times-12" font-size="14.00"> &#160;Providers</text>
<polygon fill="#fb8072" stroke="transparent" points="814.5,-10 814.5,-30 834.5,-30 834.5,-10 814.5,-10"/>
<text text-anchor="start" x="838.23" y="-15.4" font-family="Times-12" font-size="14.00"> &#160;Exports</text>
<g id="clust1" class="cluster">
<title>cluster_TournamentModule</title>
<polygon fill="none" stroke="black" stroke-dasharray="1,5" points="8,-70 8,-195 1305,-195 1305,-70 8,-70"/>
</g>
<g id="clust2" class="cluster">
<title>cluster_TournamentModule_declarations</title>
<polygon fill="none" stroke="black" points="334,-78 334,-130 1297,-130 1297,-78 334,-78"/>
</g>
<g id="clust10" class="cluster">
<title>cluster_TournamentModule_imports</title>
<polygon fill="none" stroke="black" points="16,-78 16,-130 326,-130 326,-78 16,-78"/>
</g>
<!-- DetailsComponent -->
<g id="node1" class="node">
<title>DetailsComponent</title>
<polygon fill="#ffffb3" stroke="black" points="1289.48,-122 1168.52,-122 1168.52,-86 1289.48,-86 1289.48,-122"/>
<text text-anchor="middle" x="1229" y="-99.8" font-family="Times,serif" font-size="14.00">DetailsComponent</text>
</g>
<!-- TournamentModule -->
<g id="node8" class="node">
<title>TournamentModule</title>
<polygon fill="#8dd3c7" stroke="black" points="770.97,-187 767.97,-191 746.97,-191 743.97,-187 643.03,-187 643.03,-151 770.97,-151 770.97,-187"/>
<text text-anchor="middle" x="707" y="-164.8" font-family="Times,serif" font-size="14.00">TournamentModule</text>
</g>
<!-- DetailsComponent&#45;&gt;TournamentModule -->
<g id="edge1" class="edge">
<title>DetailsComponent&#45;&gt;TournamentModule</title>
<path fill="none" stroke="black" d="M1229,-122.29C1229,-144.21 1229,-178 1229,-178 1229,-178 781.01,-178 781.01,-178"/>
<polygon fill="black" stroke="black" points="781.01,-174.5 771.01,-178 781.01,-181.5 781.01,-174.5"/>
</g>
<!-- EditComponent -->
<g id="node2" class="node">
<title>EditComponent</title>
<polygon fill="#ffffb3" stroke="black" points="1150.17,-122 1045.83,-122 1045.83,-86 1150.17,-86 1150.17,-122"/>
<text text-anchor="middle" x="1098" y="-99.8" font-family="Times,serif" font-size="14.00">EditComponent</text>
</g>
<!-- EditComponent&#45;&gt;TournamentModule -->
<g id="edge2" class="edge">
<title>EditComponent&#45;&gt;TournamentModule</title>
<path fill="none" stroke="black" d="M1098,-122.11C1098,-141.34 1098,-169 1098,-169 1098,-169 781.13,-169 781.13,-169"/>
<polygon fill="black" stroke="black" points="781.13,-165.5 771.13,-169 781.13,-172.5 781.13,-165.5"/>
</g>
<!-- IndexComponent -->
<g id="node3" class="node">
<title>IndexComponent</title>
<polygon fill="#ffffb3" stroke="black" points="1027.71,-122 914.29,-122 914.29,-86 1027.71,-86 1027.71,-122"/>
<text text-anchor="middle" x="971" y="-99.8" font-family="Times,serif" font-size="14.00">IndexComponent</text>
</g>
<!-- IndexComponent&#45;&gt;TournamentModule -->
<g id="edge3" class="edge">
<title>IndexComponent&#45;&gt;TournamentModule</title>
<path fill="none" stroke="black" d="M971,-122.03C971,-138.4 971,-160 971,-160 971,-160 781.24,-160 781.24,-160"/>
<polygon fill="black" stroke="black" points="781.24,-156.5 771.24,-160 781.24,-163.5 781.24,-156.5"/>
</g>
<!-- MatchComponent -->
<g id="node4" class="node">
<title>MatchComponent</title>
<polygon fill="#ffffb3" stroke="black" points="896.6,-122 779.4,-122 779.4,-86 896.6,-86 896.6,-122"/>
<text text-anchor="middle" x="838" y="-99.8" font-family="Times,serif" font-size="14.00">MatchComponent</text>
</g>
<!-- MatchComponent&#45;&gt;TournamentModule -->
<g id="edge4" class="edge">
<title>MatchComponent&#45;&gt;TournamentModule</title>
<path fill="none" stroke="black" d="M779.31,-104C771.51,-104 766.13,-104 766.13,-104 766.13,-104 766.13,-140.89 766.13,-140.89"/>
<polygon fill="black" stroke="black" points="762.63,-140.89 766.13,-150.89 769.63,-140.89 762.63,-140.89"/>
</g>
<!-- RoundFilterPipe -->
<g id="node5" class="node">
<title>RoundFilterPipe</title>
<polygon fill="#ffffb3" stroke="black" points="761.05,-122 652.95,-122 652.95,-86 761.05,-86 761.05,-122"/>
<text text-anchor="middle" x="707" y="-99.8" font-family="Times,serif" font-size="14.00">RoundFilterPipe</text>
</g>
<!-- RoundFilterPipe&#45;&gt;TournamentModule -->
<g id="edge5" class="edge">
<title>RoundFilterPipe&#45;&gt;TournamentModule</title>
<path fill="none" stroke="black" d="M707,-122.11C707,-122.11 707,-140.99 707,-140.99"/>
<polygon fill="black" stroke="black" points="703.5,-140.99 707,-150.99 710.5,-140.99 703.5,-140.99"/>
</g>
<!-- StatusToStringPipe -->
<g id="node6" class="node">
<title>StatusToStringPipe</title>
<polygon fill="#ffffb3" stroke="black" points="634.39,-122 509.61,-122 509.61,-86 634.39,-86 634.39,-122"/>
<text text-anchor="middle" x="572" y="-99.8" font-family="Times,serif" font-size="14.00">StatusToStringPipe</text>
</g>
<!-- StatusToStringPipe&#45;&gt;TournamentModule -->
<g id="edge6" class="edge">
<title>StatusToStringPipe&#45;&gt;TournamentModule</title>
<path fill="none" stroke="black" d="M634.65,-104C642.52,-104 647.87,-104 647.87,-104 647.87,-104 647.87,-140.89 647.87,-140.89"/>
<polygon fill="black" stroke="black" points="644.37,-140.89 647.87,-150.89 651.37,-140.89 644.37,-140.89"/>
</g>
<!-- TournamentComponent -->
<g id="node7" class="node">
<title>TournamentComponent</title>
<polygon fill="#ffffb3" stroke="black" points="491.76,-122 342.24,-122 342.24,-86 491.76,-86 491.76,-122"/>
<text text-anchor="middle" x="417" y="-99.8" font-family="Times,serif" font-size="14.00">TournamentComponent</text>
</g>
<!-- TournamentComponent&#45;&gt;TournamentModule -->
<g id="edge7" class="edge">
<title>TournamentComponent&#45;&gt;TournamentModule</title>
<path fill="none" stroke="black" d="M417,-122.03C417,-138.4 417,-160 417,-160 417,-160 633,-160 633,-160"/>
<polygon fill="black" stroke="black" points="633,-163.5 643,-160 633,-156.5 633,-163.5"/>
</g>
<!-- SharedModule -->
<g id="node9" class="node">
<title>SharedModule</title>
<polygon fill="#8dd3c7" stroke="black" points="318.42,-122 315.42,-126 294.42,-126 291.42,-122 219.58,-122 219.58,-86 318.42,-86 318.42,-122"/>
<text text-anchor="middle" x="269" y="-99.8" font-family="Times,serif" font-size="14.00">SharedModule</text>
</g>
<!-- SharedModule&#45;&gt;TournamentModule -->
<g id="edge8" class="edge">
<title>SharedModule&#45;&gt;TournamentModule</title>
<path fill="none" stroke="black" d="M269,-122.11C269,-141.34 269,-169 269,-169 269,-169 632.84,-169 632.84,-169"/>
<polygon fill="black" stroke="black" points="632.84,-172.5 642.84,-169 632.84,-165.5 632.84,-172.5"/>
</g>
<!-- TournamentsRoutingModule -->
<g id="node10" class="node">
<title>TournamentsRoutingModule</title>
<polygon fill="#8dd3c7" stroke="black" points="202.04,-122 199.04,-126 178.04,-126 175.04,-122 23.96,-122 23.96,-86 202.04,-86 202.04,-122"/>
<text text-anchor="middle" x="113" y="-99.8" font-family="Times,serif" font-size="14.00">TournamentsRoutingModule</text>
</g>
<!-- TournamentsRoutingModule&#45;&gt;TournamentModule -->
<g id="edge9" class="edge">
<title>TournamentsRoutingModule&#45;&gt;TournamentModule</title>
<path fill="none" stroke="black" d="M113,-122.29C113,-144.21 113,-178 113,-178 113,-178 632.87,-178 632.87,-178"/>
<polygon fill="black" stroke="black" points="632.87,-181.5 642.87,-178 632.87,-174.5 632.87,-181.5"/>
</g>
</g>
</svg>
