<?xml version="1.0" encoding="UTF-8" standalone="no"?>
<!DOCTYPE svg PUBLIC "-//W3C//DTD SVG 1.1//EN"
 "http://www.w3.org/Graphics/SVG/1.1/DTD/svg11.dtd">
<!-- Generated by graphviz version 2.47.0 (20210316.0004)
 -->
<!-- Title: dependencies Pages: 1 -->
<svg width="896pt" height="284pt"
 viewBox="0.00 0.00 896.00 284.00" xmlns="http://www.w3.org/2000/svg" xmlns:xlink="http://www.w3.org/1999/xlink">
<g id="graph0" class="graph" transform="scale(1 1) rotate(0) translate(4 280)">
<title>dependencies</title>
<polygon fill="white" stroke="transparent" points="-4,4 -4,-280 892,-280 892,4 -4,4"/>
<text text-anchor="start" x="423.01" y="-42.4" font-family="Times-12" font-weight="bold" font-size="14.00">Legend</text>
<polygon fill="#ffffb3" stroke="transparent" points="210,-10 210,-30 230,-30 230,-10 210,-10"/>
<text text-anchor="start" x="233.63" y="-15.4" font-family="Times-12" font-size="14.00"> &#160;Declarations</text>
<polygon fill="#8dd3c7" stroke="transparent" points="323,-10 323,-30 343,-30 343,-10 323,-10"/>
<text text-anchor="start" x="346.73" y="-15.4" font-family="Times-12" font-size="14.00"> &#160;Module</text>
<polygon fill="#80b1d3" stroke="transparent" points="409,-10 409,-30 429,-30 429,-10 409,-10"/>
<text text-anchor="start" x="432.78" y="-15.4" font-family="Times-12" font-size="14.00"> &#160;Bootstrap</text>
<polygon fill="#fdb462" stroke="transparent" points="506,-10 506,-30 526,-30 526,-10 506,-10"/>
<text text-anchor="start" x="529.67" y="-15.4" font-family="Times-12" font-size="14.00"> &#160;Providers</text>
<polygon fill="#fb8072" stroke="transparent" points="602,-10 602,-30 622,-30 622,-10 602,-10"/>
<text text-anchor="start" x="625.73" y="-15.4" font-family="Times-12" font-size="14.00"> &#160;Exports</text>
<g id="clust1" class="cluster">
<title>cluster_LayoutModule</title>
<polygon fill="none" stroke="black" stroke-dasharray="1,5" points="8,-70 8,-268 880,-268 880,-70 8,-70"/>
</g>
<g id="clust2" class="cluster">
<title>cluster_LayoutModule_declarations</title>
<polygon fill="none" stroke="black" points="138,-78 138,-130 872,-130 872,-78 138,-78"/>
</g>
<g id="clust9" class="cluster">
<title>cluster_LayoutModule_exports</title>
<polygon fill="none" stroke="black" points="230,-208 230,-260 646,-260 646,-208 230,-208"/>
</g>
<g id="clust8" class="cluster">
<title>cluster_LayoutModule_imports</title>
<polygon fill="none" stroke="black" points="16,-78 16,-130 130,-130 130,-78 16,-78"/>
</g>
<!-- FooterComponent -->
<g id="node1" class="node">
<title>FooterComponent</title>
<polygon fill="#ffffb3" stroke="black" points="863.88,-122 746.12,-122 746.12,-86 863.88,-86 863.88,-122"/>
<text text-anchor="middle" x="805" y="-99.8" font-family="Times,serif" font-size="14.00">FooterComponent</text>
</g>
<!-- LayoutModule -->
<g id="node6" class="node">
<title>LayoutModule</title>
<polygon fill="#8dd3c7" stroke="black" points="485.71,-187 482.71,-191 461.71,-191 458.71,-187 386.29,-187 386.29,-151 485.71,-151 485.71,-187"/>
<text text-anchor="middle" x="436" y="-164.8" font-family="Times,serif" font-size="14.00">LayoutModule</text>
</g>
<!-- FooterComponent&#45;&gt;LayoutModule -->
<g id="edge1" class="edge">
<title>FooterComponent&#45;&gt;LayoutModule</title>
<path fill="none" stroke="black" d="M805,-122.11C805,-141.34 805,-169 805,-169 805,-169 495.76,-169 495.76,-169"/>
<polygon fill="black" stroke="black" points="495.77,-165.5 485.76,-169 495.76,-172.5 495.77,-165.5"/>
</g>
<!-- HeaderComponent -->
<g id="node2" class="node">
<title>HeaderComponent</title>
<polygon fill="#ffffb3" stroke="black" points="727.74,-122 606.26,-122 606.26,-86 727.74,-86 727.74,-122"/>
<text text-anchor="middle" x="667" y="-99.8" font-family="Times,serif" font-size="14.00">HeaderComponent</text>
</g>
<!-- HeaderComponent&#45;&gt;LayoutModule -->
<g id="edge2" class="edge">
<title>HeaderComponent&#45;&gt;LayoutModule</title>
<path fill="none" stroke="black" d="M621.91,-122.03C621.91,-138.4 621.91,-160 621.91,-160 621.91,-160 495.82,-160 495.82,-160"/>
<polygon fill="black" stroke="black" points="495.82,-156.5 485.82,-160 495.82,-163.5 495.82,-156.5"/>
</g>
<!-- MenuButtonComponent -->
<g id="node3" class="node">
<title>MenuButtonComponent</title>
<polygon fill="#ffffb3" stroke="black" points="588.11,-122 435.89,-122 435.89,-86 588.11,-86 588.11,-122"/>
<text text-anchor="middle" x="512" y="-99.8" font-family="Times,serif" font-size="14.00">MenuButtonComponent</text>
</g>
<!-- MenuButtonComponent&#45;&gt;LayoutModule -->
<g id="edge3" class="edge">
<title>MenuButtonComponent&#45;&gt;LayoutModule</title>
<path fill="none" stroke="black" d="M460.77,-122.11C460.77,-122.11 460.77,-140.99 460.77,-140.99"/>
<polygon fill="black" stroke="black" points="457.27,-140.99 460.77,-150.99 464.27,-140.99 457.27,-140.99"/>
</g>
<!-- MenuComponent -->
<g id="node4" class="node">
<title>MenuComponent</title>
<polygon fill="#ffffb3" stroke="black" points="417.99,-122 304.01,-122 304.01,-86 417.99,-86 417.99,-122"/>
<text text-anchor="middle" x="361" y="-99.8" font-family="Times,serif" font-size="14.00">MenuComponent</text>
</g>
<!-- MenuComponent&#45;&gt;LayoutModule -->
<g id="edge4" class="edge">
<title>MenuComponent&#45;&gt;LayoutModule</title>
<path fill="none" stroke="black" d="M402.2,-122.11C402.2,-122.11 402.2,-140.99 402.2,-140.99"/>
<polygon fill="black" stroke="black" points="398.7,-140.99 402.2,-150.99 405.7,-140.99 398.7,-140.99"/>
</g>
<!-- MenuLinkComponent -->
<g id="node5" class="node">
<title>MenuLinkComponent</title>
<polygon fill="#ffffb3" stroke="black" points="286.44,-122 145.56,-122 145.56,-86 286.44,-86 286.44,-122"/>
<text text-anchor="middle" x="216" y="-99.8" font-family="Times,serif" font-size="14.00">MenuLinkComponent</text>
</g>
<!-- MenuLinkComponent&#45;&gt;LayoutModule -->
<g id="edge5" class="edge">
<title>MenuLinkComponent&#45;&gt;LayoutModule</title>
<path fill="none" stroke="black" d="M262.24,-122.03C262.24,-138.4 262.24,-160 262.24,-160 262.24,-160 376.21,-160 376.21,-160"/>
<polygon fill="black" stroke="black" points="376.21,-163.5 386.21,-160 376.21,-156.5 376.21,-163.5"/>
</g>
<!-- FooterComponent  -->
<g id="node8" class="node">
<title>FooterComponent </title>
<polygon fill="#fb8072" stroke="black" points="637.88,-252 516.12,-252 516.12,-216 637.88,-216 637.88,-252"/>
<text text-anchor="middle" x="577" y="-229.8" font-family="Times,serif" font-size="14.00">FooterComponent </text>
</g>
<!-- LayoutModule&#45;&gt;FooterComponent  -->
<g id="edge7" class="edge">
<title>LayoutModule&#45;&gt;FooterComponent </title>
<path fill="none" stroke="black" stroke-dasharray="5,2" d="M485.61,-178C517.19,-178 552.18,-178 552.18,-178 552.18,-178 552.18,-205.97 552.18,-205.97"/>
<polygon fill="black" stroke="black" points="548.68,-205.97 552.18,-215.97 555.68,-205.97 548.68,-205.97"/>
</g>
<!-- HeaderComponent  -->
<g id="node9" class="node">
<title>HeaderComponent </title>
<polygon fill="#fb8072" stroke="black" points="498.74,-252 373.26,-252 373.26,-216 498.74,-216 498.74,-252"/>
<text text-anchor="middle" x="436" y="-229.8" font-family="Times,serif" font-size="14.00">HeaderComponent </text>
</g>
<!-- LayoutModule&#45;&gt;HeaderComponent  -->
<g id="edge8" class="edge">
<title>LayoutModule&#45;&gt;HeaderComponent </title>
<path fill="none" stroke="black" stroke-dasharray="5,2" d="M436,-187.11C436,-187.11 436,-205.99 436,-205.99"/>
<polygon fill="black" stroke="black" points="432.5,-205.99 436,-215.99 439.5,-205.99 432.5,-205.99"/>
</g>
<!-- MenuComponent  -->
<g id="node10" class="node">
<title>MenuComponent </title>
<polygon fill="#fb8072" stroke="black" points="355.99,-252 238.01,-252 238.01,-216 355.99,-216 355.99,-252"/>
<text text-anchor="middle" x="297" y="-229.8" font-family="Times,serif" font-size="14.00">MenuComponent </text>
</g>
<!-- LayoutModule&#45;&gt;MenuComponent  -->
<g id="edge9" class="edge">
<title>LayoutModule&#45;&gt;MenuComponent </title>
<path fill="none" stroke="black" stroke-dasharray="5,2" d="M386.36,-178C358.74,-178 329.88,-178 329.88,-178 329.88,-178 329.88,-205.97 329.88,-205.97"/>
<polygon fill="black" stroke="black" points="326.38,-205.97 329.88,-215.97 333.38,-205.97 326.38,-205.97"/>
</g>
<!-- SharedModule -->
<g id="node7" class="node">
<title>SharedModule</title>
<polygon fill="#8dd3c7" stroke="black" points="122.42,-122 119.42,-126 98.42,-126 95.42,-122 23.58,-122 23.58,-86 122.42,-86 122.42,-122"/>
<text text-anchor="middle" x="73" y="-99.8" font-family="Times,serif" font-size="14.00">SharedModule</text>
</g>
<!-- SharedModule&#45;&gt;LayoutModule -->
<g id="edge6" class="edge">
<title>SharedModule&#45;&gt;LayoutModule</title>
<path fill="none" stroke="black" d="M73,-122.11C73,-141.34 73,-169 73,-169 73,-169 376.29,-169 376.29,-169"/>
<polygon fill="black" stroke="black" points="376.29,-172.5 386.29,-169 376.29,-165.5 376.29,-172.5"/>
</g>
</g>
</svg>
