<?xml version="1.0" encoding="UTF-8" standalone="no"?>
<!DOCTYPE svg PUBLIC "-//W3C//DTD SVG 1.1//EN"
 "http://www.w3.org/Graphics/SVG/1.1/DTD/svg11.dtd">
<!-- Generated by graphviz version 2.47.0 (20210316.0004)
 -->
<!-- Title: dependencies Pages: 1 -->
<svg width="972pt" height="211pt"
 viewBox="0.00 0.00 972.00 211.00" xmlns="http://www.w3.org/2000/svg" xmlns:xlink="http://www.w3.org/1999/xlink">
<g id="graph0" class="graph" transform="scale(1 1) rotate(0) translate(4 207)">
<title>dependencies</title>
<polygon fill="white" stroke="transparent" points="-4,4 -4,-207 968,-207 968,4 -4,4"/>
<text text-anchor="start" x="461.01" y="-42.4" font-family="Times-12" font-weight="bold" font-size="14.00">Legend</text>
<polygon fill="#ffffb3" stroke="transparent" points="248,-10 248,-30 268,-30 268,-10 248,-10"/>
<text text-anchor="start" x="271.63" y="-15.4" font-family="Times-12" font-size="14.00"> &#160;Declarations</text>
<polygon fill="#8dd3c7" stroke="transparent" points="361,-10 361,-30 381,-30 381,-10 361,-10"/>
<text text-anchor="start" x="384.73" y="-15.4" font-family="Times-12" font-size="14.00"> &#160;Module</text>
<polygon fill="#80b1d3" stroke="transparent" points="447,-10 447,-30 467,-30 467,-10 447,-10"/>
<text text-anchor="start" x="470.78" y="-15.4" font-family="Times-12" font-size="14.00"> &#160;Bootstrap</text>
<polygon fill="#fdb462" stroke="transparent" points="544,-10 544,-30 564,-30 564,-10 544,-10"/>
<text text-anchor="start" x="567.67" y="-15.4" font-family="Times-12" font-size="14.00"> &#160;Providers</text>
<polygon fill="#fb8072" stroke="transparent" points="640,-10 640,-30 660,-30 660,-10 640,-10"/>
<text text-anchor="start" x="663.73" y="-15.4" font-family="Times-12" font-size="14.00"> &#160;Exports</text>
<g id="clust1" class="cluster">
<title>cluster_MemberModule</title>
<polygon fill="none" stroke="black" stroke-dasharray="1,5" points="8,-70 8,-195 956,-195 956,-70 8,-70"/>
</g>
<g id="clust2" class="cluster">
<title>cluster_MemberModule_declarations</title>
<polygon fill="none" stroke="black" points="308,-78 308,-130 948,-130 948,-78 308,-78"/>
</g>
<g id="clust7" class="cluster">
<title>cluster_MemberModule_imports</title>
<polygon fill="none" stroke="black" points="16,-78 16,-130 300,-130 300,-78 16,-78"/>
</g>
<!-- AddComponent -->
<g id="node1" class="node">
<title>AddComponent</title>
<polygon fill="#ffffb3" stroke="black" points="939.94,-122 834.06,-122 834.06,-86 939.94,-86 939.94,-122"/>
<text text-anchor="middle" x="887" y="-99.8" font-family="Times,serif" font-size="14.00">AddComponent</text>
</g>
<!-- MemberModule -->
<g id="node5" class="node">
<title>MemberModule</title>
<polygon fill="#8dd3c7" stroke="black" points="500.47,-187 497.47,-191 476.47,-191 473.47,-187 393.53,-187 393.53,-151 500.47,-151 500.47,-187"/>
<text text-anchor="middle" x="447" y="-164.8" font-family="Times,serif" font-size="14.00">MemberModule</text>
</g>
<!-- AddComponent&#45;&gt;MemberModule -->
<g id="edge1" class="edge">
<title>AddComponent&#45;&gt;MemberModule</title>
<path fill="none" stroke="black" d="M887,-122.28C887,-143.32 887,-175 887,-175 887,-175 510.51,-175 510.51,-175"/>
<polygon fill="black" stroke="black" points="510.51,-171.5 500.51,-175 510.51,-178.5 510.51,-171.5"/>
</g>
<!-- ChangePasswordDialogComponent -->
<g id="node2" class="node">
<title>ChangePasswordDialogComponent</title>
<polygon fill="#ffffb3" stroke="black" points="815.85,-122 600.15,-122 600.15,-86 815.85,-86 815.85,-122"/>
<text text-anchor="middle" x="708" y="-99.8" font-family="Times,serif" font-size="14.00">ChangePasswordDialogComponent</text>
</g>
<!-- ChangePasswordDialogComponent&#45;&gt;MemberModule -->
<g id="edge2" class="edge">
<title>ChangePasswordDialogComponent&#45;&gt;MemberModule</title>
<path fill="none" stroke="black" d="M708,-122.02C708,-139.37 708,-163 708,-163 708,-163 510.76,-163 510.76,-163"/>
<polygon fill="black" stroke="black" points="510.76,-159.5 500.76,-163 510.76,-166.5 510.76,-159.5"/>
</g>
<!-- MemberComponent -->
<g id="node3" class="node">
<title>MemberComponent</title>
<polygon fill="#ffffb3" stroke="black" points="582.26,-122 453.74,-122 453.74,-86 582.26,-86 582.26,-122"/>
<text text-anchor="middle" x="518" y="-99.8" font-family="Times,serif" font-size="14.00">MemberComponent</text>
</g>
<!-- MemberComponent&#45;&gt;MemberModule -->
<g id="edge3" class="edge">
<title>MemberComponent&#45;&gt;MemberModule</title>
<path fill="none" stroke="black" d="M477.05,-122.11C477.05,-122.11 477.05,-140.99 477.05,-140.99"/>
<polygon fill="black" stroke="black" points="473.55,-140.99 477.05,-150.99 480.55,-140.99 473.55,-140.99"/>
</g>
<!-- ProfileComponent -->
<g id="node4" class="node">
<title>ProfileComponent</title>
<polygon fill="#ffffb3" stroke="black" points="435.93,-122 316.07,-122 316.07,-86 435.93,-86 435.93,-122"/>
<text text-anchor="middle" x="376" y="-99.8" font-family="Times,serif" font-size="14.00">ProfileComponent</text>
</g>
<!-- ProfileComponent&#45;&gt;MemberModule -->
<g id="edge4" class="edge">
<title>ProfileComponent&#45;&gt;MemberModule</title>
<path fill="none" stroke="black" d="M414.61,-122.11C414.61,-122.11 414.61,-140.99 414.61,-140.99"/>
<polygon fill="black" stroke="black" points="411.11,-140.99 414.61,-150.99 418.11,-140.99 411.11,-140.99"/>
</g>
<!-- MemberRoutingModule -->
<g id="node6" class="node">
<title>MemberRoutingModule</title>
<polygon fill="#8dd3c7" stroke="black" points="292.09,-122 289.09,-126 268.09,-126 265.09,-122 139.91,-122 139.91,-86 292.09,-86 292.09,-122"/>
<text text-anchor="middle" x="216" y="-99.8" font-family="Times,serif" font-size="14.00">MemberRoutingModule</text>
</g>
<!-- MemberRoutingModule&#45;&gt;MemberModule -->
<g id="edge5" class="edge">
<title>MemberRoutingModule&#45;&gt;MemberModule</title>
<path fill="none" stroke="black" d="M216,-122.02C216,-139.37 216,-163 216,-163 216,-163 383.42,-163 383.42,-163"/>
<polygon fill="black" stroke="black" points="383.42,-166.5 393.42,-163 383.42,-159.5 383.42,-166.5"/>
</g>
<!-- SharedModule -->
<g id="node7" class="node">
<title>SharedModule</title>
<polygon fill="#8dd3c7" stroke="black" points="122.42,-122 119.42,-126 98.42,-126 95.42,-122 23.58,-122 23.58,-86 122.42,-86 122.42,-122"/>
<text text-anchor="middle" x="73" y="-99.8" font-family="Times,serif" font-size="14.00">SharedModule</text>
</g>
<!-- SharedModule&#45;&gt;MemberModule -->
<g id="edge6" class="edge">
<title>SharedModule&#45;&gt;MemberModule</title>
<path fill="none" stroke="black" d="M73,-122.28C73,-143.32 73,-175 73,-175 73,-175 383.41,-175 383.41,-175"/>
<polygon fill="black" stroke="black" points="383.41,-178.5 393.41,-175 383.41,-171.5 383.41,-178.5"/>
</g>
</g>
</svg>
