<?xml version="1.0" encoding="UTF-8" standalone="no"?>
<!DOCTYPE svg PUBLIC "-//W3C//DTD SVG 1.1//EN"
 "http://www.w3.org/Graphics/SVG/1.1/DTD/svg11.dtd">
<!-- Generated by graphviz version 2.47.0 (20210316.0004)
 -->
<!-- Title: dependencies Pages: 1 -->
<svg width="6652pt" height="360pt"
 viewBox="0.00 0.00 6652.00 360.00" xmlns="http://www.w3.org/2000/svg" xmlns:xlink="http://www.w3.org/1999/xlink">
<g id="graph0" class="graph" transform="scale(1 1) rotate(0) translate(4 356)">
<title>dependencies</title>
<polygon fill="white" stroke="transparent" points="-4,4 -4,-356 6648,-356 6648,4 -4,4"/>
<text text-anchor="start" x="3301.01" y="-42.4" font-family="Times-12" font-weight="bold" font-size="14.00">Legend</text>
<polygon fill="#ffffb3" stroke="transparent" points="3088,-10 3088,-30 3108,-30 3108,-10 3088,-10"/>
<text text-anchor="start" x="3111.63" y="-15.4" font-family="Times-12" font-size="14.00"> &#160;Declarations</text>
<polygon fill="#8dd3c7" stroke="transparent" points="3201,-10 3201,-30 3221,-30 3221,-10 3201,-10"/>
<text text-anchor="start" x="3224.73" y="-15.4" font-family="Times-12" font-size="14.00"> &#160;Module</text>
<polygon fill="#80b1d3" stroke="transparent" points="3287,-10 3287,-30 3307,-30 3307,-10 3287,-10"/>
<text text-anchor="start" x="3310.78" y="-15.4" font-family="Times-12" font-size="14.00"> &#160;Bootstrap</text>
<polygon fill="#fdb462" stroke="transparent" points="3384,-10 3384,-30 3404,-30 3404,-10 3384,-10"/>
<text text-anchor="start" x="3407.67" y="-15.4" font-family="Times-12" font-size="14.00"> &#160;Providers</text>
<polygon fill="#fb8072" stroke="transparent" points="3480,-10 3480,-30 3500,-30 3500,-10 3480,-10"/>
<text text-anchor="start" x="3503.73" y="-15.4" font-family="Times-12" font-size="14.00"> &#160;Exports</text>
<g id="clust1" class="cluster">
<title>cluster_AppModule</title>
<polygon fill="none" stroke="black" stroke-dasharray="1,5" points="1190,-70 1190,-344 2048,-344 2048,-70 1190,-70"/>
</g>
<g id="clust2" class="cluster">
<title>cluster_AppModule_declarations</title>
<polygon fill="none" stroke="black" points="1918,-154 1918,-206 2040,-206 2040,-154 1918,-154"/>
</g>
<g id="clust4" class="cluster">
<title>cluster_AppModule_imports</title>
<polygon fill="none" stroke="black" points="1544,-78 1544,-206 1910,-206 1910,-78 1544,-78"/>
</g>
<g id="clust6" class="cluster">
<title>cluster_AppModule_bootstrap</title>
<polygon fill="none" stroke="black" points="1609,-284 1609,-336 1733,-336 1733,-284 1609,-284"/>
</g>
<g id="clust7" class="cluster">
<title>cluster_AppModule_providers</title>
<polygon fill="none" stroke="black" points="1198,-154 1198,-206 1536,-206 1536,-154 1198,-154"/>
</g>
<g id="clust14" class="cluster">
<title>cluster_AuthModule</title>
<polygon fill="none" stroke="black" stroke-dasharray="1,5" points="3861,-70 3861,-206 4291,-206 4291,-70 3861,-70"/>
</g>
<g id="clust15" class="cluster">
<title>cluster_AuthModule_declarations</title>
<polygon fill="none" stroke="black" points="4025,-78 4025,-130 4283,-130 4283,-78 4025,-78"/>
</g>
<g id="clust18" class="cluster">
<title>cluster_AuthModule_imports</title>
<polygon fill="none" stroke="black" points="3869,-78 3869,-130 4017,-130 4017,-78 3869,-78"/>
</g>
<g id="clust34" class="cluster">
<title>cluster_HomeModule</title>
<polygon fill="none" stroke="black" stroke-dasharray="1,5" points="4299,-70 4299,-206 4609,-206 4609,-70 4299,-70"/>
</g>
<g id="clust35" class="cluster">
<title>cluster_HomeModule_declarations</title>
<polygon fill="none" stroke="black" points="4469,-78 4469,-130 4601,-130 4601,-78 4469,-78"/>
</g>
<g id="clust37" class="cluster">
<title>cluster_HomeModule_imports</title>
<polygon fill="none" stroke="black" points="4307,-78 4307,-130 4461,-130 4461,-78 4307,-78"/>
</g>
<g id="clust47" class="cluster">
<title>cluster_LayoutModule</title>
<polygon fill="none" stroke="black" stroke-dasharray="1,5" points="8,-70 8,-138 1182,-138 1182,-70 8,-70"/>
</g>
<g id="clust48" class="cluster">
<title>cluster_LayoutModule_declarations</title>
<polygon fill="none" stroke="black" points="440,-78 440,-130 1174,-130 1174,-78 440,-78"/>
</g>
<g id="clust55" class="cluster">
<title>cluster_LayoutModule_exports</title>
<polygon fill="none" stroke="black" points="16,-78 16,-130 432,-130 432,-78 16,-78"/>
</g>
<g id="clust58" class="cluster">
<title>cluster_MemberModule</title>
<polygon fill="none" stroke="black" stroke-dasharray="1,5" points="4617,-70 4617,-206 5448,-206 5448,-70 4617,-70"/>
</g>
<g id="clust59" class="cluster">
<title>cluster_MemberModule_declarations</title>
<polygon fill="none" stroke="black" points="4801,-78 4801,-130 5440,-130 5440,-78 4801,-78"/>
</g>
<g id="clust64" class="cluster">
<title>cluster_MemberModule_imports</title>
<polygon fill="none" stroke="black" points="4625,-78 4625,-130 4793,-130 4793,-78 4625,-78"/>
</g>
<g id="clust74" class="cluster">
<title>cluster_SharedModule</title>
<polygon fill="none" stroke="black" stroke-dasharray="1,5" points="2056,-146 2056,-214 3853,-214 3853,-146 2056,-146"/>
</g>
<g id="clust75" class="cluster">
<title>cluster_SharedModule_declarations</title>
<polygon fill="none" stroke="black" points="2969,-154 2969,-206 3845,-206 3845,-154 2969,-154"/>
</g>
<g id="clust83" class="cluster">
<title>cluster_SharedModule_exports</title>
<polygon fill="none" stroke="black" points="2064,-154 2064,-206 2961,-206 2961,-154 2064,-154"/>
</g>
<g id="clust86" class="cluster">
<title>cluster_TournamentModule</title>
<polygon fill="none" stroke="black" stroke-dasharray="1,5" points="5456,-70 5456,-206 6636,-206 6636,-70 5456,-70"/>
</g>
<g id="clust87" class="cluster">
<title>cluster_TournamentModule_declarations</title>
<polygon fill="none" stroke="black" points="5666,-78 5666,-130 6628,-130 6628,-78 5666,-78"/>
</g>
<g id="clust95" class="cluster">
<title>cluster_TournamentModule_imports</title>
<polygon fill="none" stroke="black" points="5464,-78 5464,-130 5658,-130 5658,-78 5464,-78"/>
</g>
<!-- AppComponent -->
<g id="node1" class="node">
<title>AppComponent</title>
<polygon fill="#ffffb3" stroke="black" points="2031.94,-198 1926.06,-198 1926.06,-162 2031.94,-162 2031.94,-198"/>
<text text-anchor="middle" x="1979" y="-175.8" font-family="Times,serif" font-size="14.00">AppComponent</text>
</g>
<!-- AppModule -->
<g id="node2" class="node">
<title>AppModule</title>
<polygon fill="#8dd3c7" stroke="black" points="1712.66,-263 1709.66,-267 1688.66,-267 1685.66,-263 1629.34,-263 1629.34,-227 1712.66,-227 1712.66,-263"/>
<text text-anchor="middle" x="1671" y="-240.8" font-family="Times,serif" font-size="14.00">AppModule</text>
</g>
<!-- AppComponent&#45;&gt;AppModule -->
<g id="edge1" class="edge">
<title>AppComponent&#45;&gt;AppModule</title>
<path fill="none" stroke="black" d="M1926.12,-186C1847.28,-186 1708.09,-186 1708.09,-186 1708.09,-186 1708.09,-216.98 1708.09,-216.98"/>
<polygon fill="black" stroke="black" points="1704.59,-216.98 1708.09,-226.98 1711.59,-216.98 1704.59,-216.98"/>
</g>
<!-- AppComponent  -->
<g id="node7" class="node">
<title>AppComponent </title>
<polygon fill="#80b1d3" stroke="black" points="1725.44,-328 1616.56,-328 1616.56,-292 1725.44,-292 1725.44,-328"/>
<text text-anchor="middle" x="1671" y="-305.8" font-family="Times,serif" font-size="14.00">AppComponent </text>
</g>
<!-- AppModule&#45;&gt;AppComponent  -->
<g id="edge6" class="edge">
<title>AppModule&#45;&gt;AppComponent </title>
<path fill="none" stroke="black" stroke-dasharray="1,5" d="M1671,-263.11C1671,-263.11 1671,-281.99 1671,-281.99"/>
<polygon fill="black" stroke="black" points="1667.5,-281.99 1671,-291.99 1674.5,-281.99 1667.5,-281.99"/>
</g>
<!-- AppRoutingModule -->
<g id="node3" class="node">
<title>AppRoutingModule</title>
<polygon fill="#8dd3c7" stroke="black" points="1680.27,-122 1677.27,-126 1656.27,-126 1653.27,-122 1551.73,-122 1551.73,-86 1680.27,-86 1680.27,-122"/>
<text text-anchor="middle" x="1616" y="-99.8" font-family="Times,serif" font-size="14.00">AppRoutingModule</text>
</g>
<!-- AppRoutingModule&#45;&gt;AppModule -->
<g id="edge2" class="edge">
<title>AppRoutingModule&#45;&gt;AppModule</title>
<path fill="none" stroke="black" d="M1666,-122.14C1666,-122.14 1666,-216.93 1666,-216.93"/>
<polygon fill="black" stroke="black" points="1662.5,-216.92 1666,-226.93 1669.5,-216.93 1662.5,-216.92"/>
</g>
<!-- CoreModule -->
<g id="node4" class="node">
<title>CoreModule</title>
<polygon fill="#8dd3c7" stroke="black" points="1785.26,-122 1782.26,-126 1761.26,-126 1758.26,-122 1698.74,-122 1698.74,-86 1785.26,-86 1785.26,-122"/>
<text text-anchor="middle" x="1742" y="-99.8" font-family="Times,serif" font-size="14.00">CoreModule</text>
</g>
<!-- CoreModule&#45;&gt;AppModule -->
<g id="edge3" class="edge">
<title>CoreModule&#45;&gt;AppModule</title>
<path fill="none" stroke="black" d="M1703.36,-122.14C1703.36,-122.14 1703.36,-216.93 1703.36,-216.93"/>
<polygon fill="black" stroke="black" points="1699.86,-216.92 1703.36,-226.93 1706.86,-216.93 1699.86,-216.92"/>
</g>
<!-- LayoutModule -->
<g id="node5" class="node">
<title>LayoutModule</title>
<polygon fill="#8dd3c7" stroke="black" points="1651.71,-198 1648.71,-202 1627.71,-202 1624.71,-198 1552.29,-198 1552.29,-162 1651.71,-162 1651.71,-198"/>
<text text-anchor="middle" x="1602" y="-175.8" font-family="Times,serif" font-size="14.00">LayoutModule</text>
</g>
<!-- LayoutModule&#45;&gt;AppModule -->
<g id="edge4" class="edge">
<title>LayoutModule&#45;&gt;AppModule</title>
<path fill="none" stroke="black" d="M1640.39,-198.11C1640.39,-198.11 1640.39,-216.99 1640.39,-216.99"/>
<polygon fill="black" stroke="black" points="1636.89,-216.99 1640.39,-226.99 1643.89,-216.99 1636.89,-216.99"/>
</g>
<!-- FooterComponent  -->
<g id="node22" class="node">
<title>FooterComponent </title>
<polygon fill="#fb8072" stroke="black" points="288.88,-122 167.12,-122 167.12,-86 288.88,-86 288.88,-122"/>
<text text-anchor="middle" x="228" y="-99.8" font-family="Times,serif" font-size="14.00">FooterComponent </text>
</g>
<!-- LayoutModule&#45;&gt;FooterComponent  -->
<g id="edge22" class="edge">
<title>LayoutModule&#45;&gt;FooterComponent </title>
<path fill="none" stroke="black" stroke-dasharray="5,2" d="M1577.2,-161.83C1577.2,-157.95 1577.2,-155 1577.2,-155 1577.2,-155 228,-155 228,-155 228,-155 228,-132.12 228,-132.12"/>
<polygon fill="black" stroke="black" points="231.5,-132.12 228,-122.12 224.5,-132.12 231.5,-132.12"/>
</g>
<!-- HeaderComponent  -->
<g id="node23" class="node">
<title>HeaderComponent </title>
<polygon fill="#fb8072" stroke="black" points="149.74,-122 24.26,-122 24.26,-86 149.74,-86 149.74,-122"/>
<text text-anchor="middle" x="87" y="-99.8" font-family="Times,serif" font-size="14.00">HeaderComponent </text>
</g>
<!-- LayoutModule&#45;&gt;HeaderComponent  -->
<g id="edge23" class="edge">
<title>LayoutModule&#45;&gt;HeaderComponent </title>
<path fill="none" stroke="black" stroke-dasharray="5,2" d="M1564.8,-161.92C1564.8,-160.15 1564.8,-159 1564.8,-159 1564.8,-159 87,-159 87,-159 87,-159 87,-132.01 87,-132.01"/>
<polygon fill="black" stroke="black" points="90.5,-132.01 87,-122.01 83.5,-132.01 90.5,-132.01"/>
</g>
<!-- MenuComponent  -->
<g id="node24" class="node">
<title>MenuComponent </title>
<polygon fill="#fb8072" stroke="black" points="423.99,-122 306.01,-122 306.01,-86 423.99,-86 423.99,-122"/>
<text text-anchor="middle" x="365" y="-99.8" font-family="Times,serif" font-size="14.00">MenuComponent </text>
</g>
<!-- LayoutModule&#45;&gt;MenuComponent  -->
<g id="edge24" class="edge">
<title>LayoutModule&#45;&gt;MenuComponent </title>
<path fill="none" stroke="black" stroke-dasharray="5,2" d="M1589.6,-161.79C1589.6,-156.45 1589.6,-152 1589.6,-152 1589.6,-152 365,-152 365,-152 365,-152 365,-132.15 365,-132.15"/>
<polygon fill="black" stroke="black" points="368.5,-132.15 365,-122.15 361.5,-132.15 368.5,-132.15"/>
</g>
<!-- SharedModule -->
<g id="node6" class="node">
<title>SharedModule</title>
<polygon fill="#8dd3c7" stroke="black" points="1902.42,-122 1899.42,-126 1878.42,-126 1875.42,-122 1803.58,-122 1803.58,-86 1902.42,-86 1902.42,-122"/>
<text text-anchor="middle" x="1853" y="-99.8" font-family="Times,serif" font-size="14.00">SharedModule</text>
</g>
<!-- SharedModule&#45;&gt;AppModule -->
<g id="edge5" class="edge">
<title>SharedModule&#45;&gt;AppModule</title>
<path fill="none" stroke="black" d="M1885.81,-122.14C1885.81,-160.23 1885.81,-245 1885.81,-245 1885.81,-245 1722.67,-245 1722.67,-245"/>
<polygon fill="black" stroke="black" points="1722.67,-241.5 1712.67,-245 1722.67,-248.5 1722.67,-241.5"/>
</g>
<!-- SharedModule&#45;&gt;LayoutModule -->
<g id="edge21" class="edge">
<title>SharedModule&#45;&gt;LayoutModule</title>
<path fill="none" stroke="black" d="M1869.4,-122.03C1869.4,-142.77 1869.4,-174 1869.4,-174 1869.4,-174 1661.67,-174 1661.67,-174"/>
<polygon fill="black" stroke="black" points="1661.67,-170.5 1651.67,-174 1661.67,-177.5 1661.67,-170.5"/>
</g>
<!-- AuthModule -->
<g id="node12" class="node">
<title>AuthModule</title>
<polygon fill="#8dd3c7" stroke="black" points="4059.55,-198 4056.55,-202 4035.55,-202 4032.55,-198 3972.45,-198 3972.45,-162 4059.55,-162 4059.55,-198"/>
<text text-anchor="middle" x="4016" y="-175.8" font-family="Times,serif" font-size="14.00">AuthModule</text>
</g>
<!-- SharedModule&#45;&gt;AuthModule -->
<g id="edge12" class="edge">
<title>SharedModule&#45;&gt;AuthModule</title>
<path fill="none" stroke="black" d="M1902.53,-89C2211.07,-89 3856.63,-89 3856.63,-89 3856.63,-89 3856.63,-180 3856.63,-180 3856.63,-180 3962.03,-180 3962.03,-180"/>
<polygon fill="black" stroke="black" points="3962.03,-183.5 3972.03,-180 3962.03,-176.5 3962.03,-183.5"/>
</g>
<!-- HomeModule -->
<g id="node15" class="node">
<title>HomeModule</title>
<polygon fill="#8dd3c7" stroke="black" points="4430.76,-198 4427.76,-202 4406.76,-202 4403.76,-198 4337.24,-198 4337.24,-162 4430.76,-162 4430.76,-198"/>
<text text-anchor="middle" x="4384" y="-175.8" font-family="Times,serif" font-size="14.00">HomeModule</text>
</g>
<!-- SharedModule&#45;&gt;HomeModule -->
<g id="edge15" class="edge">
<title>SharedModule&#45;&gt;HomeModule</title>
<path fill="none" stroke="black" d="M1820.19,-122.2C1820.19,-128.03 1820.19,-133 1820.19,-133 1820.19,-133 4368.37,-133 4368.37,-133 4368.37,-133 4368.37,-151.96 4368.37,-151.96"/>
<polygon fill="black" stroke="black" points="4364.87,-151.96 4368.37,-161.96 4371.87,-151.96 4364.87,-151.96"/>
</g>
<!-- MemberModule -->
<g id="node29" class="node">
<title>MemberModule</title>
<polygon fill="#8dd3c7" stroke="black" points="5059.47,-198 5056.47,-202 5035.47,-202 5032.47,-198 4952.53,-198 4952.53,-162 5059.47,-162 5059.47,-198"/>
<text text-anchor="middle" x="5006" y="-175.8" font-family="Times,serif" font-size="14.00">MemberModule</text>
</g>
<!-- SharedModule&#45;&gt;MemberModule -->
<g id="edge30" class="edge">
<title>SharedModule&#45;&gt;MemberModule</title>
<path fill="none" stroke="black" d="M1836.6,-122.06C1836.6,-126.49 1836.6,-130 1836.6,-130 1836.6,-130 4976.65,-130 4976.65,-130 4976.65,-130 4976.65,-151.95 4976.65,-151.95"/>
<polygon fill="black" stroke="black" points="4973.15,-151.95 4976.65,-161.95 4980.15,-151.95 4973.15,-151.95"/>
</g>
<!-- CollapsePanelComponent  -->
<g id="node37" class="node">
<title>CollapsePanelComponent </title>
<polygon fill="#fb8072" stroke="black" points="2380.43,-198 2215.57,-198 2215.57,-162 2380.43,-162 2380.43,-198"/>
<text text-anchor="middle" x="2298" y="-175.8" font-family="Times,serif" font-size="14.00">CollapsePanelComponent </text>
</g>
<!-- SharedModule&#45;&gt;CollapsePanelComponent  -->
<g id="edge37" class="edge">
<title>SharedModule&#45;&gt;CollapsePanelComponent </title>
<path fill="none" stroke="black" stroke-dasharray="5,2" d="M1902.32,-117C2018.18,-117 2298,-117 2298,-117 2298,-117 2298,-151.78 2298,-151.78"/>
<polygon fill="black" stroke="black" points="2294.5,-151.78 2298,-161.78 2301.5,-151.78 2294.5,-151.78"/>
</g>
<!-- EnumToArrayPipe  -->
<g id="node38" class="node">
<title>EnumToArrayPipe </title>
<polygon fill="#fb8072" stroke="black" points="2198.03,-198 2071.97,-198 2071.97,-162 2198.03,-162 2198.03,-198"/>
<text text-anchor="middle" x="2135" y="-175.8" font-family="Times,serif" font-size="14.00">EnumToArrayPipe </text>
</g>
<!-- SharedModule&#45;&gt;EnumToArrayPipe  -->
<g id="edge38" class="edge">
<title>SharedModule&#45;&gt;EnumToArrayPipe </title>
<path fill="none" stroke="black" stroke-dasharray="5,2" d="M1902.44,-120C1983.32,-120 2135,-120 2135,-120 2135,-120 2135,-152 2135,-152"/>
<polygon fill="black" stroke="black" points="2131.5,-152 2135,-162 2138.5,-152 2131.5,-152"/>
</g>
<!-- FormErrorComponent  -->
<g id="node39" class="node">
<title>FormErrorComponent </title>
<polygon fill="#fb8072" stroke="black" points="2953.2,-198 2808.8,-198 2808.8,-162 2953.2,-162 2953.2,-198"/>
<text text-anchor="middle" x="2881" y="-175.8" font-family="Times,serif" font-size="14.00">FormErrorComponent </text>
</g>
<!-- SharedModule&#45;&gt;FormErrorComponent  -->
<g id="edge39" class="edge">
<title>SharedModule&#45;&gt;FormErrorComponent </title>
<path fill="none" stroke="black" stroke-dasharray="5,2" d="M1902.24,-107C2107.06,-107 2881,-107 2881,-107 2881,-107 2881,-151.96 2881,-151.96"/>
<polygon fill="black" stroke="black" points="2877.5,-151.96 2881,-161.96 2884.5,-151.96 2877.5,-151.96"/>
</g>
<!-- InProgressComponent  -->
<g id="node40" class="node">
<title>InProgressComponent </title>
<polygon fill="#fb8072" stroke="black" points="2790.2,-198 2645.8,-198 2645.8,-162 2790.2,-162 2790.2,-198"/>
<text text-anchor="middle" x="2718" y="-175.8" font-family="Times,serif" font-size="14.00">InProgressComponent </text>
</g>
<!-- SharedModule&#45;&gt;InProgressComponent  -->
<g id="edge40" class="edge">
<title>SharedModule&#45;&gt;InProgressComponent </title>
<path fill="none" stroke="black" stroke-dasharray="5,2" d="M1902.3,-110C2085.69,-110 2718,-110 2718,-110 2718,-110 2718,-151.97 2718,-151.97"/>
<polygon fill="black" stroke="black" points="2714.5,-151.97 2718,-161.97 2721.5,-151.97 2714.5,-151.97"/>
</g>
<!-- LoaderComponent  -->
<g id="node41" class="node">
<title>LoaderComponent </title>
<polygon fill="#fb8072" stroke="black" points="2627.48,-198 2502.52,-198 2502.52,-162 2627.48,-162 2627.48,-198"/>
<text text-anchor="middle" x="2565" y="-175.8" font-family="Times,serif" font-size="14.00">LoaderComponent </text>
</g>
<!-- SharedModule&#45;&gt;LoaderComponent  -->
<g id="edge41" class="edge">
<title>SharedModule&#45;&gt;LoaderComponent </title>
<path fill="none" stroke="black" stroke-dasharray="5,2" d="M1902.22,-112C2063.38,-112 2565,-112 2565,-112 2565,-112 2565,-151.78 2565,-151.78"/>
<polygon fill="black" stroke="black" points="2561.5,-151.78 2565,-161.78 2568.5,-151.78 2561.5,-151.78"/>
</g>
<!-- ToDatePipe  -->
<g id="node42" class="node">
<title>ToDatePipe </title>
<polygon fill="#fb8072" stroke="black" points="2485.37,-198 2398.63,-198 2398.63,-162 2485.37,-162 2485.37,-198"/>
<text text-anchor="middle" x="2442" y="-175.8" font-family="Times,serif" font-size="14.00">ToDatePipe </text>
</g>
<!-- SharedModule&#45;&gt;ToDatePipe  -->
<g id="edge42" class="edge">
<title>SharedModule&#45;&gt;ToDatePipe </title>
<path fill="none" stroke="black" stroke-dasharray="5,2" d="M1902.46,-115C2044.24,-115 2442,-115 2442,-115 2442,-115 2442,-151.89 2442,-151.89"/>
<polygon fill="black" stroke="black" points="2438.5,-151.89 2442,-161.89 2445.5,-151.89 2438.5,-151.89"/>
</g>
<!-- TournamentModule -->
<g id="node50" class="node">
<title>TournamentModule</title>
<polygon fill="#8dd3c7" stroke="black" points="6055.97,-198 6052.97,-202 6031.97,-202 6028.97,-198 5928.03,-198 5928.03,-162 6055.97,-162 6055.97,-198"/>
<text text-anchor="middle" x="5992" y="-175.8" font-family="Times,serif" font-size="14.00">TournamentModule</text>
</g>
<!-- SharedModule&#45;&gt;TournamentModule -->
<g id="edge50" class="edge">
<title>SharedModule&#45;&gt;TournamentModule</title>
<path fill="none" stroke="black" d="M1853,-122.17C1853,-124.45 1853,-126 1853,-126 1853,-126 5930.47,-126 5930.47,-126 5930.47,-126 5930.47,-151.72 5930.47,-151.72"/>
<polygon fill="black" stroke="black" points="5926.97,-151.72 5930.47,-161.72 5933.97,-151.72 5926.97,-151.72"/>
</g>
<!-- ErrorInterceptor -->
<g id="node8" class="node">
<title>ErrorInterceptor</title>
<ellipse fill="#fdb462" stroke="black" cx="1454" cy="-180" rx="73.53" ry="18"/>
<text text-anchor="middle" x="1454" y="-175.8" font-family="Times,serif" font-size="14.00">ErrorInterceptor</text>
</g>
<!-- ErrorInterceptor&#45;&gt;AppModule -->
<g id="edge7" class="edge">
<title>ErrorInterceptor&#45;&gt;AppModule</title>
<path fill="none" stroke="black" d="M1454,-198.02C1454,-215.37 1454,-239 1454,-239 1454,-239 1619.16,-239 1619.16,-239"/>
<polygon fill="black" stroke="black" points="1619.16,-242.5 1629.16,-239 1619.16,-235.5 1619.16,-242.5"/>
</g>
<!-- TokenInterceptor -->
<g id="node9" class="node">
<title>TokenInterceptor</title>
<ellipse fill="#fdb462" stroke="black" cx="1284" cy="-180" rx="78.13" ry="18"/>
<text text-anchor="middle" x="1284" y="-175.8" font-family="Times,serif" font-size="14.00">TokenInterceptor</text>
</g>
<!-- TokenInterceptor&#45;&gt;AppModule -->
<g id="edge8" class="edge">
<title>TokenInterceptor&#45;&gt;AppModule</title>
<path fill="none" stroke="black" d="M1284,-198.28C1284,-219.32 1284,-251 1284,-251 1284,-251 1619.22,-251 1619.22,-251"/>
<polygon fill="black" stroke="black" points="1619.22,-254.5 1629.22,-251 1619.22,-247.5 1619.22,-254.5"/>
</g>
<!-- AuthComponent -->
<g id="node10" class="node">
<title>AuthComponent</title>
<polygon fill="#ffffb3" stroke="black" points="4274.83,-122 4165.17,-122 4165.17,-86 4274.83,-86 4274.83,-122"/>
<text text-anchor="middle" x="4220" y="-99.8" font-family="Times,serif" font-size="14.00">AuthComponent</text>
</g>
<!-- AuthComponent&#45;&gt;AuthModule -->
<g id="edge9" class="edge">
<title>AuthComponent&#45;&gt;AuthModule</title>
<path fill="none" stroke="black" d="M4220,-122.01C4220,-144.49 4220,-180 4220,-180 4220,-180 4069.76,-180 4069.76,-180"/>
<polygon fill="black" stroke="black" points="4069.76,-176.5 4059.76,-180 4069.76,-183.5 4069.76,-176.5"/>
</g>
<!-- LoginComponent -->
<g id="node11" class="node">
<title>LoginComponent</title>
<polygon fill="#ffffb3" stroke="black" points="4147.28,-122 4032.72,-122 4032.72,-86 4147.28,-86 4147.28,-122"/>
<text text-anchor="middle" x="4090" y="-99.8" font-family="Times,serif" font-size="14.00">LoginComponent</text>
</g>
<!-- LoginComponent&#45;&gt;AuthModule -->
<g id="edge10" class="edge">
<title>LoginComponent&#45;&gt;AuthModule</title>
<path fill="none" stroke="black" d="M4046.19,-122.01C4046.19,-122.01 4046.19,-151.85 4046.19,-151.85"/>
<polygon fill="black" stroke="black" points="4042.69,-151.85 4046.19,-161.85 4049.69,-151.85 4042.69,-151.85"/>
</g>
<!-- AuthRoutingModule -->
<g id="node13" class="node">
<title>AuthRoutingModule</title>
<polygon fill="#8dd3c7" stroke="black" points="4009.17,-122 4006.17,-126 3985.17,-126 3982.17,-122 3876.83,-122 3876.83,-86 4009.17,-86 4009.17,-122"/>
<text text-anchor="middle" x="3943" y="-99.8" font-family="Times,serif" font-size="14.00">AuthRoutingModule</text>
</g>
<!-- AuthRoutingModule&#45;&gt;AuthModule -->
<g id="edge11" class="edge">
<title>AuthRoutingModule&#45;&gt;AuthModule</title>
<path fill="none" stroke="black" d="M3990.78,-122.01C3990.78,-122.01 3990.78,-151.85 3990.78,-151.85"/>
<polygon fill="black" stroke="black" points="3987.28,-151.85 3990.78,-161.85 3994.28,-151.85 3987.28,-151.85"/>
</g>
<!-- HomeComponent -->
<g id="node14" class="node">
<title>HomeComponent</title>
<polygon fill="#ffffb3" stroke="black" points="4592.55,-122 4477.45,-122 4477.45,-86 4592.55,-86 4592.55,-122"/>
<text text-anchor="middle" x="4535" y="-99.8" font-family="Times,serif" font-size="14.00">HomeComponent</text>
</g>
<!-- HomeComponent&#45;&gt;HomeModule -->
<g id="edge13" class="edge">
<title>HomeComponent&#45;&gt;HomeModule</title>
<path fill="none" stroke="black" d="M4535,-122.2C4535,-146.36 4535,-186 4535,-186 4535,-186 4440.95,-186 4440.95,-186"/>
<polygon fill="black" stroke="black" points="4440.95,-182.5 4430.95,-186 4440.95,-189.5 4440.95,-182.5"/>
</g>
<!-- HomeRoutingModule -->
<g id="node16" class="node">
<title>HomeRoutingModule</title>
<polygon fill="#8dd3c7" stroke="black" points="4453.38,-122 4450.38,-126 4429.38,-126 4426.38,-122 4314.62,-122 4314.62,-86 4453.38,-86 4453.38,-122"/>
<text text-anchor="middle" x="4384" y="-99.8" font-family="Times,serif" font-size="14.00">HomeRoutingModule</text>
</g>
<!-- HomeRoutingModule&#45;&gt;HomeModule -->
<g id="edge14" class="edge">
<title>HomeRoutingModule&#45;&gt;HomeModule</title>
<path fill="none" stroke="black" d="M4399.63,-122.01C4399.63,-122.01 4399.63,-151.85 4399.63,-151.85"/>
<polygon fill="black" stroke="black" points="4396.13,-151.85 4399.63,-161.85 4403.13,-151.85 4396.13,-151.85"/>
</g>
<!-- FooterComponent -->
<g id="node17" class="node">
<title>FooterComponent</title>
<polygon fill="#ffffb3" stroke="black" points="705.88,-122 588.12,-122 588.12,-86 705.88,-86 705.88,-122"/>
<text text-anchor="middle" x="647" y="-99.8" font-family="Times,serif" font-size="14.00">FooterComponent</text>
</g>
<!-- FooterComponent&#45;&gt;LayoutModule -->
<g id="edge16" class="edge">
<title>FooterComponent&#45;&gt;LayoutModule</title>
<path fill="none" stroke="black" d="M647,-122.13C647,-132.71 647,-144 647,-144 647,-144 1614.4,-144 1614.4,-144 1614.4,-144 1614.4,-151.58 1614.4,-151.58"/>
<polygon fill="black" stroke="black" points="1610.9,-151.58 1614.4,-161.58 1617.9,-151.58 1610.9,-151.58"/>
</g>
<!-- HeaderComponent -->
<g id="node18" class="node">
<title>HeaderComponent</title>
<polygon fill="#ffffb3" stroke="black" points="569.74,-122 448.26,-122 448.26,-86 569.74,-86 569.74,-122"/>
<text text-anchor="middle" x="509" y="-99.8" font-family="Times,serif" font-size="14.00">HeaderComponent</text>
</g>
<!-- HeaderComponent&#45;&gt;LayoutModule -->
<g id="edge17" class="edge">
<title>HeaderComponent&#45;&gt;LayoutModule</title>
<path fill="none" stroke="black" d="M509,-122.15C509,-134.27 509,-148 509,-148 509,-148 1602,-148 1602,-148 1602,-148 1602,-151.76 1602,-151.76"/>
<polygon fill="black" stroke="black" points="1598.5,-151.76 1602,-161.76 1605.5,-151.76 1598.5,-151.76"/>
</g>
<!-- MenuButtonComponent -->
<g id="node19" class="node">
<title>MenuButtonComponent</title>
<polygon fill="#ffffb3" stroke="black" points="1166.11,-122 1013.89,-122 1013.89,-86 1166.11,-86 1166.11,-122"/>
<text text-anchor="middle" x="1090" y="-99.8" font-family="Times,serif" font-size="14.00">MenuButtonComponent</text>
</g>
<!-- MenuButtonComponent&#45;&gt;LayoutModule -->
<g id="edge18" class="edge">
<title>MenuButtonComponent&#45;&gt;LayoutModule</title>
<path fill="none" stroke="black" d="M1166.28,-104C1294.58,-104 1539.69,-104 1539.69,-104 1539.69,-104 1539.69,-180 1539.69,-180 1539.69,-180 1542.3,-180 1542.3,-180"/>
<polygon fill="black" stroke="black" points="1542.3,-183.5 1552.3,-180 1542.3,-176.5 1542.3,-183.5"/>
</g>
<!-- MenuComponent -->
<g id="node20" class="node">
<title>MenuComponent</title>
<polygon fill="#ffffb3" stroke="black" points="995.99,-122 882.01,-122 882.01,-86 995.99,-86 995.99,-122"/>
<text text-anchor="middle" x="939" y="-99.8" font-family="Times,serif" font-size="14.00">MenuComponent</text>
</g>
<!-- MenuComponent&#45;&gt;LayoutModule -->
<g id="edge19" class="edge">
<title>MenuComponent&#45;&gt;LayoutModule</title>
<path fill="none" stroke="black" d="M939,-122.04C939,-129.75 939,-137 939,-137 939,-137 1639.2,-137 1639.2,-137 1639.2,-137 1639.2,-151.51 1639.2,-151.51"/>
<polygon fill="black" stroke="black" points="1635.7,-151.51 1639.2,-161.51 1642.7,-151.51 1635.7,-151.51"/>
</g>
<!-- MenuLinkComponent -->
<g id="node21" class="node">
<title>MenuLinkComponent</title>
<polygon fill="#ffffb3" stroke="black" points="864.44,-122 723.56,-122 723.56,-86 864.44,-86 864.44,-122"/>
<text text-anchor="middle" x="794" y="-99.8" font-family="Times,serif" font-size="14.00">MenuLinkComponent</text>
</g>
<!-- MenuLinkComponent&#45;&gt;LayoutModule -->
<g id="edge20" class="edge">
<title>MenuLinkComponent&#45;&gt;LayoutModule</title>
<path fill="none" stroke="black" d="M794,-122.07C794,-131.46 794,-141 794,-141 794,-141 1626.8,-141 1626.8,-141 1626.8,-141 1626.8,-151.87 1626.8,-151.87"/>
<polygon fill="black" stroke="black" points="1623.3,-151.87 1626.8,-161.87 1630.3,-151.87 1623.3,-151.87"/>
</g>
<!-- AddComponent -->
<g id="node25" class="node">
<title>AddComponent</title>
<polygon fill="#ffffb3" stroke="black" points="5148.94,-122 5043.06,-122 5043.06,-86 5148.94,-86 5148.94,-122"/>
<text text-anchor="middle" x="5096" y="-99.8" font-family="Times,serif" font-size="14.00">AddComponent</text>
</g>
<!-- AddComponent&#45;&gt;MemberModule -->
<g id="edge25" class="edge">
<title>AddComponent&#45;&gt;MemberModule</title>
<path fill="none" stroke="black" d="M5051.38,-122.01C5051.38,-122.01 5051.38,-151.85 5051.38,-151.85"/>
<polygon fill="black" stroke="black" points="5047.88,-151.85 5051.38,-161.85 5054.88,-151.85 5047.88,-151.85"/>
</g>
<!-- ChangePasswordDialogComponent -->
<g id="node26" class="node">
<title>ChangePasswordDialogComponent</title>
<polygon fill="#ffffb3" stroke="black" points="5024.85,-122 4809.15,-122 4809.15,-86 5024.85,-86 5024.85,-122"/>
<text text-anchor="middle" x="4917" y="-99.8" font-family="Times,serif" font-size="14.00">ChangePasswordDialogComponent</text>
</g>
<!-- ChangePasswordDialogComponent&#45;&gt;MemberModule -->
<g id="edge26" class="edge">
<title>ChangePasswordDialogComponent&#45;&gt;MemberModule</title>
<path fill="none" stroke="black" d="M5000.79,-122.01C5000.79,-122.01 5000.79,-151.85 5000.79,-151.85"/>
<polygon fill="black" stroke="black" points="4997.29,-151.85 5000.79,-161.85 5004.29,-151.85 4997.29,-151.85"/>
</g>
<!-- MemberComponent -->
<g id="node27" class="node">
<title>MemberComponent</title>
<polygon fill="#ffffb3" stroke="black" points="5432.26,-122 5303.74,-122 5303.74,-86 5432.26,-86 5432.26,-122"/>
<text text-anchor="middle" x="5368" y="-99.8" font-family="Times,serif" font-size="14.00">MemberComponent</text>
</g>
<!-- MemberComponent&#45;&gt;MemberModule -->
<g id="edge27" class="edge">
<title>MemberComponent&#45;&gt;MemberModule</title>
<path fill="none" stroke="black" d="M5368,-122.03C5368,-147.51 5368,-191 5368,-191 5368,-191 5069.8,-191 5069.8,-191"/>
<polygon fill="black" stroke="black" points="5069.8,-187.5 5059.8,-191 5069.8,-194.5 5069.8,-187.5"/>
</g>
<!-- ProfileComponent -->
<g id="node28" class="node">
<title>ProfileComponent</title>
<polygon fill="#ffffb3" stroke="black" points="5285.93,-122 5166.07,-122 5166.07,-86 5285.93,-86 5285.93,-122"/>
<text text-anchor="middle" x="5226" y="-99.8" font-family="Times,serif" font-size="14.00">ProfileComponent</text>
</g>
<!-- ProfileComponent&#45;&gt;MemberModule -->
<g id="edge28" class="edge">
<title>ProfileComponent&#45;&gt;MemberModule</title>
<path fill="none" stroke="black" d="M5226,-122.15C5226,-145.76 5226,-184 5226,-184 5226,-184 5069.54,-184 5069.54,-184"/>
<polygon fill="black" stroke="black" points="5069.54,-180.5 5059.54,-184 5069.54,-187.5 5069.54,-180.5"/>
</g>
<!-- MemberRoutingModule -->
<g id="node30" class="node">
<title>MemberRoutingModule</title>
<polygon fill="#8dd3c7" stroke="black" points="4785.09,-122 4782.09,-126 4761.09,-126 4758.09,-122 4632.91,-122 4632.91,-86 4785.09,-86 4785.09,-122"/>
<text text-anchor="middle" x="4709" y="-99.8" font-family="Times,serif" font-size="14.00">MemberRoutingModule</text>
</g>
<!-- MemberRoutingModule&#45;&gt;MemberModule -->
<g id="edge29" class="edge">
<title>MemberRoutingModule&#45;&gt;MemberModule</title>
<path fill="none" stroke="black" d="M4709,-122.03C4709,-142.77 4709,-174 4709,-174 4709,-174 4942.22,-174 4942.22,-174"/>
<polygon fill="black" stroke="black" points="4942.22,-177.5 4952.22,-174 4942.22,-170.5 4942.22,-177.5"/>
</g>
<!-- CollapsePanelComponent -->
<g id="node31" class="node">
<title>CollapsePanelComponent</title>
<polygon fill="#ffffb3" stroke="black" points="3278.93,-198 3117.07,-198 3117.07,-162 3278.93,-162 3278.93,-198"/>
<text text-anchor="middle" x="3198" y="-175.8" font-family="Times,serif" font-size="14.00">CollapsePanelComponent</text>
</g>
<!-- CollapsePanelComponent&#45;&gt;SharedModule -->
<g id="edge31" class="edge">
<title>CollapsePanelComponent&#45;&gt;SharedModule</title>
<path fill="none" stroke="black" d="M3198,-161.91C3198,-138.87 3198,-102 3198,-102 3198,-102 1912.46,-102 1912.46,-102"/>
<polygon fill="black" stroke="black" points="1912.46,-98.5 1902.46,-102 1912.46,-105.5 1912.46,-98.5"/>
</g>
<!-- EnumToArrayPipe -->
<g id="node32" class="node">
<title>EnumToArrayPipe</title>
<polygon fill="#ffffb3" stroke="black" points="3099.03,-198 2976.97,-198 2976.97,-162 3099.03,-162 3099.03,-198"/>
<text text-anchor="middle" x="3038" y="-175.8" font-family="Times,serif" font-size="14.00">EnumToArrayPipe</text>
</g>
<!-- EnumToArrayPipe&#45;&gt;SharedModule -->
<g id="edge32" class="edge">
<title>EnumToArrayPipe&#45;&gt;SharedModule</title>
<path fill="none" stroke="black" d="M3038,-161.99C3038,-139.51 3038,-104 3038,-104 3038,-104 1912.41,-104 1912.41,-104"/>
<polygon fill="black" stroke="black" points="1912.41,-100.5 1902.41,-104 1912.41,-107.5 1912.41,-100.5"/>
</g>
<!-- FormErrorComponent -->
<g id="node33" class="node">
<title>FormErrorComponent</title>
<polygon fill="#ffffb3" stroke="black" points="3836.7,-198 3695.3,-198 3695.3,-162 3836.7,-162 3836.7,-198"/>
<text text-anchor="middle" x="3766" y="-175.8" font-family="Times,serif" font-size="14.00">FormErrorComponent</text>
</g>
<!-- FormErrorComponent&#45;&gt;SharedModule -->
<g id="edge33" class="edge">
<title>FormErrorComponent&#45;&gt;SharedModule</title>
<path fill="none" stroke="black" d="M3766,-161.77C3766,-135.99 3766,-92 3766,-92 3766,-92 1912.7,-92 1912.7,-92"/>
<polygon fill="black" stroke="black" points="1912.7,-88.5 1902.7,-92 1912.7,-95.5 1912.7,-88.5"/>
</g>
<!-- InProgressComponent -->
<g id="node34" class="node">
<title>InProgressComponent</title>
<polygon fill="#ffffb3" stroke="black" points="3677.7,-198 3536.3,-198 3536.3,-162 3677.7,-162 3677.7,-198"/>
<text text-anchor="middle" x="3607" y="-175.8" font-family="Times,serif" font-size="14.00">InProgressComponent</text>
</g>
<!-- InProgressComponent&#45;&gt;SharedModule -->
<g id="edge34" class="edge">
<title>InProgressComponent&#45;&gt;SharedModule</title>
<path fill="none" stroke="black" d="M3607,-161.76C3607,-136.52 3607,-94 3607,-94 3607,-94 1912.67,-94 1912.67,-94"/>
<polygon fill="black" stroke="black" points="1912.67,-90.5 1902.67,-94 1912.67,-97.5 1912.67,-90.5"/>
</g>
<!-- LoaderComponent -->
<g id="node35" class="node">
<title>LoaderComponent</title>
<polygon fill="#ffffb3" stroke="black" points="3518.47,-198 3397.53,-198 3397.53,-162 3518.47,-162 3518.47,-198"/>
<text text-anchor="middle" x="3458" y="-175.8" font-family="Times,serif" font-size="14.00">LoaderComponent</text>
</g>
<!-- LoaderComponent&#45;&gt;SharedModule -->
<g id="edge35" class="edge">
<title>LoaderComponent&#45;&gt;SharedModule</title>
<path fill="none" stroke="black" d="M3458,-161.99C3458,-137.58 3458,-97 3458,-97 3458,-97 1912.35,-97 1912.35,-97"/>
<polygon fill="black" stroke="black" points="1912.35,-93.5 1902.35,-97 1912.35,-100.5 1912.35,-93.5"/>
</g>
<!-- ToDatePipe -->
<g id="node36" class="node">
<title>ToDatePipe</title>
<polygon fill="#ffffb3" stroke="black" points="3379.37,-198 3296.63,-198 3296.63,-162 3379.37,-162 3379.37,-198"/>
<text text-anchor="middle" x="3338" y="-175.8" font-family="Times,serif" font-size="14.00">ToDatePipe</text>
</g>
<!-- ToDatePipe&#45;&gt;SharedModule -->
<g id="edge36" class="edge">
<title>ToDatePipe&#45;&gt;SharedModule</title>
<path fill="none" stroke="black" d="M3338,-161.62C3338,-137.72 3338,-99 3338,-99 3338,-99 1912.41,-99 1912.41,-99"/>
<polygon fill="black" stroke="black" points="1912.41,-95.5 1902.41,-99 1912.41,-102.5 1912.41,-95.5"/>
</g>
<!-- DetailsComponent -->
<g id="node43" class="node">
<title>DetailsComponent</title>
<polygon fill="#ffffb3" stroke="black" points="6310.48,-122 6189.52,-122 6189.52,-86 6310.48,-86 6310.48,-122"/>
<text text-anchor="middle" x="6250" y="-99.8" font-family="Times,serif" font-size="14.00">DetailsComponent</text>
</g>
<!-- DetailsComponent&#45;&gt;TournamentModule -->
<g id="edge43" class="edge">
<title>DetailsComponent&#45;&gt;TournamentModule</title>
<path fill="none" stroke="black" d="M6250,-122.31C6250,-142.15 6250,-171 6250,-171 6250,-171 6066.11,-171 6066.11,-171"/>
<polygon fill="black" stroke="black" points="6066.11,-167.5 6056.11,-171 6066.11,-174.5 6066.11,-167.5"/>
</g>
<!-- EditComponent -->
<g id="node44" class="node">
<title>EditComponent</title>
<polygon fill="#ffffb3" stroke="black" points="6171.17,-122 6066.83,-122 6066.83,-86 6171.17,-86 6171.17,-122"/>
<text text-anchor="middle" x="6119" y="-99.8" font-family="Times,serif" font-size="14.00">EditComponent</text>
</g>
<!-- EditComponent&#45;&gt;TournamentModule -->
<g id="edge44" class="edge">
<title>EditComponent&#45;&gt;TournamentModule</title>
<path fill="none" stroke="black" d="M6066.77,-104C6058.33,-104 6052.3,-104 6052.3,-104 6052.3,-104 6052.3,-151.99 6052.3,-151.99"/>
<polygon fill="black" stroke="black" points="6048.8,-151.99 6052.3,-161.99 6055.8,-151.99 6048.8,-151.99"/>
</g>
<!-- IndexComponent -->
<g id="node45" class="node">
<title>IndexComponent</title>
<polygon fill="#ffffb3" stroke="black" points="6048.71,-122 5935.29,-122 5935.29,-86 6048.71,-86 6048.71,-122"/>
<text text-anchor="middle" x="5992" y="-99.8" font-family="Times,serif" font-size="14.00">IndexComponent</text>
</g>
<!-- IndexComponent&#45;&gt;TournamentModule -->
<g id="edge45" class="edge">
<title>IndexComponent&#45;&gt;TournamentModule</title>
<path fill="none" stroke="black" d="M5992,-122.01C5992,-122.01 5992,-151.85 5992,-151.85"/>
<polygon fill="black" stroke="black" points="5988.5,-151.85 5992,-161.85 5995.5,-151.85 5988.5,-151.85"/>
</g>
<!-- MatchComponent -->
<g id="node46" class="node">
<title>MatchComponent</title>
<polygon fill="#ffffb3" stroke="black" points="5917.6,-122 5800.4,-122 5800.4,-86 5917.6,-86 5917.6,-122"/>
<text text-anchor="middle" x="5859" y="-99.8" font-family="Times,serif" font-size="14.00">MatchComponent</text>
</g>
<!-- MatchComponent&#45;&gt;TournamentModule -->
<g id="edge46" class="edge">
<title>MatchComponent&#45;&gt;TournamentModule</title>
<path fill="none" stroke="black" d="M5917.62,-104C5926.59,-104 5932.94,-104 5932.94,-104 5932.94,-104 5932.94,-151.99 5932.94,-151.99"/>
<polygon fill="black" stroke="black" points="5929.44,-151.99 5932.94,-161.99 5936.44,-151.99 5929.44,-151.99"/>
</g>
<!-- RoundFilterPipe -->
<g id="node47" class="node">
<title>RoundFilterPipe</title>
<polygon fill="#ffffb3" stroke="black" points="5782.05,-122 5673.95,-122 5673.95,-86 5782.05,-86 5782.05,-122"/>
<text text-anchor="middle" x="5728" y="-99.8" font-family="Times,serif" font-size="14.00">RoundFilterPipe</text>
</g>
<!-- RoundFilterPipe&#45;&gt;TournamentModule -->
<g id="edge47" class="edge">
<title>RoundFilterPipe&#45;&gt;TournamentModule</title>
<path fill="none" stroke="black" d="M5728,-122.03C5728,-141.58 5728,-170 5728,-170 5728,-170 5917.76,-170 5917.76,-170"/>
<polygon fill="black" stroke="black" points="5917.76,-173.5 5927.76,-170 5917.76,-166.5 5917.76,-173.5"/>
</g>
<!-- StatusToStringPipe -->
<g id="node48" class="node">
<title>StatusToStringPipe</title>
<polygon fill="#ffffb3" stroke="black" points="6620.39,-122 6495.61,-122 6495.61,-86 6620.39,-86 6620.39,-122"/>
<text text-anchor="middle" x="6558" y="-99.8" font-family="Times,serif" font-size="14.00">StatusToStringPipe</text>
</g>
<!-- StatusToStringPipe&#45;&gt;TournamentModule -->
<g id="edge48" class="edge">
<title>StatusToStringPipe&#45;&gt;TournamentModule</title>
<path fill="none" stroke="black" d="M6558,-122.03C6558,-146.98 6558,-189 6558,-189 6558,-189 6066.1,-189 6066.1,-189"/>
<polygon fill="black" stroke="black" points="6066.1,-185.5 6056.1,-189 6066.1,-192.5 6066.1,-185.5"/>
</g>
<!-- TournamentComponent -->
<g id="node49" class="node">
<title>TournamentComponent</title>
<polygon fill="#ffffb3" stroke="black" points="6477.76,-122 6328.24,-122 6328.24,-86 6477.76,-86 6477.76,-122"/>
<text text-anchor="middle" x="6403" y="-99.8" font-family="Times,serif" font-size="14.00">TournamentComponent</text>
</g>
<!-- TournamentComponent&#45;&gt;TournamentModule -->
<g id="edge49" class="edge">
<title>TournamentComponent&#45;&gt;TournamentModule</title>
<path fill="none" stroke="black" d="M6403,-122.01C6403,-144.49 6403,-180 6403,-180 6403,-180 6066.22,-180 6066.22,-180"/>
<polygon fill="black" stroke="black" points="6066.22,-176.5 6056.22,-180 6066.22,-183.5 6066.22,-176.5"/>
</g>
<!-- TournamentsRoutingModule -->
<g id="node51" class="node">
<title>TournamentsRoutingModule</title>
<polygon fill="#8dd3c7" stroke="black" points="5650.04,-122 5647.04,-126 5626.04,-126 5623.04,-122 5471.96,-122 5471.96,-86 5650.04,-86 5650.04,-122"/>
<text text-anchor="middle" x="5561" y="-99.8" font-family="Times,serif" font-size="14.00">TournamentsRoutingModule</text>
</g>
<!-- TournamentsRoutingModule&#45;&gt;TournamentModule -->
<g id="edge51" class="edge">
<title>TournamentsRoutingModule&#45;&gt;TournamentModule</title>
<path fill="none" stroke="black" d="M5561,-122.04C5561,-143.66 5561,-177 5561,-177 5561,-177 5917.94,-177 5917.94,-177"/>
<polygon fill="black" stroke="black" points="5917.94,-180.5 5927.94,-177 5917.94,-173.5 5917.94,-180.5"/>
</g>
</g>
</svg>
